<?xml version="1.0" encoding="UTF-8"?>
<svg width="800" height="600" xmlns="http://www.w3.org/2000/svg">
  <!-- Orange gradient background -->
  <defs>
    <radialGradient id="bg" cx="50%" cy="50%">
      <stop offset="0%" style="stop-color:#FFD700;stop-opacity:1" />
      <stop offset="100%" style="stop-color:#FFA500;stop-opacity:1" />
    </radialGradient>
  </defs>
  
  <rect width="800" height="600" fill="url(#bg)"/>
  
  <!-- Banner -->
  <path d="M 100 100 Q 400 50 700 100 L 700 180 Q 400 130 100 180 Z" fill="#FFE4B5" stroke="#8B4513" stroke-width="3"/>
  
  <!-- "YOU MADE IT!" text -->
  <text x="400" y="145" font-family="Arial, sans-serif" font-size="72" font-weight="bold" text-anchor="middle" fill="#8B4513">YOU MADE IT!</text>
  
  <!-- Celebration confetti -->
  <rect x="150" y="250" width="20" height="30" fill="#FF69B4" transform="rotate(45 160 265)"/>
  <rect x="250" y="280" width="20" height="30" fill="#00CED1" transform="rotate(-30 260 295)"/>
  <rect x="350" y="240" width="20" height="30" fill="#FFD700" transform="rotate(60 360 255)"/>
  <rect x="450" y="270" width="20" height="30" fill="#32CD32" transform="rotate(-45 460 285)"/>
  <rect x="550" y="250" width="20" height="30" fill="#FF69B4" transform="rotate(30 560 265)"/>
  <rect x="650" y="280" width="20" height="30" fill="#00CED1" transform="rotate(-60 660 295)"/>
  
  <!-- Success message -->
  <text x="400" y="400" font-family="Arial, sans-serif" font-size="36" text-anchor="middle" fill="#8B4513">
    DuetRight Automation Ready!
  </text>
  <text x="400" y="450" font-family="Arial, sans-serif" font-size="24" text-anchor="middle" fill="#654321">
    95% Complete - Just needs OAuth tokens
  </text>
  
  <!-- Musical notes -->
  <text x="100" y="300" font-size="40" fill="#8B4513">♪</text>
  <text x="200" y="350" font-size="40" fill="#8B4513">♫</text>
  <text x="600" y="320" font-size="40" fill="#8B4513">♪</text>
  <text x="700" y="370" font-size="40" fill="#8B4513">♫</text>
</svg>